<?xml version="1.0" standalone="no"?>
<!DOCTYPE svg PUBLIC "-//W3C//DTD SVG 20010904//EN"
 "http://www.w3.org/TR/2001/REC-SVG-20010904/DTD/svg10.dtd">
<svg version="1.0" xmlns="http://www.w3.org/2000/svg"
 width="70.000000pt" height="70.000000pt" viewBox="0 0 70.000000 70.000000"
 preserveAspectRatio="xMidYMid meet">
<metadata>
Created by potrace 1.11, written by Peter Selinger 2001-2013
</metadata>
<g transform="translate(0.000000,70.000000) scale(0.100000,-0.100000)"
fill="#000000" stroke="none">
<path d="M318 603 c-11 -12 -25 -20 -29 -17 -5 3 -9 0 -9 -5 0 -6 -6 -11 -14
-11 -7 0 -25 -12 -39 -26 -14 -14 -30 -23 -36 -20 -5 4 -25 -2 -44 -13 -19
-11 -37 -17 -40 -14 -6 6 -61 -49 -64 -63 -1 -5 -5 -17 -8 -26 -4 -11 -3 -18
5 -18 6 0 9 -4 6 -9 -3 -5 12 -25 35 -46 26 -23 38 -42 35 -52 -4 -10 1 -17
14 -20 19 -5 25 -26 7 -24 -13 2 -67 -29 -67 -39 0 -5 -9 -12 -20 -15 -11 -3
-20 -12 -20 -19 0 -8 -7 -19 -15 -26 -10 -9 -15 -32 -15 -76 l0 -64 240 0 240
0 0 26 c0 15 4 23 11 18 9 -5 29 2 102 38 10 5 22 6 26 3 9 -5 61 42 61 57 0
4 -12 5 -27 2 -16 -4 -68 -9 -116 -11 -74 -4 -92 -2 -108 13 -10 9 -19 23 -19
31 0 7 -5 13 -12 13 -6 0 -8 3 -5 7 4 4 -5 19 -20 35 -22 24 -24 28 -9 28 12
0 16 5 13 14 -3 8 1 17 8 20 8 3 12 11 9 19 -2 7 2 26 10 41 15 30 12 50 -11
78 -13 14 -11 19 16 39 39 29 39 39 1 39 -16 0 -30 -5 -30 -12 0 -19 -11 -2
-16 25 -2 14 0 29 6 32 5 3 10 21 10 40 0 28 -4 33 -20 32 -11 -1 -30 -11 -42
-24z m-42 -510 c-10 -10 -19 5 -10 18 6 11 8 11 12 0 2 -7 1 -15 -2 -18z"/>
<path d="M510 380 c0 -27 -3 -30 -30 -30 l-30 0 0 -65 0 -65 30 0 c27 0 30 -3
30 -30 l0 -30 64 0 c63 0 65 1 68 28 2 21 8 27 28 27 24 0 25 3 28 68 l3 67
-31 0 c-27 0 -30 3 -30 30 l0 30 -65 0 -65 0 0 -30z"/>
</g>
</svg>
